<?xml version="1.0" standalone="no"?><!DOCTYPE svg PUBLIC "-//W3C//DTD SVG 1.1//EN" "http://www.w3.org/Graphics/SVG/1.1/DTD/svg11.dtd"><svg t="1583420337920" class="icon" viewBox="0 0 1024 1024" version="1.1" xmlns="http://www.w3.org/2000/svg" p-id="8150" xmlns:xlink="http://www.w3.org/1999/xlink" width="16" height="16"><defs><style type="text/css"></style></defs><path d="M49.536 672.64c3.797-6.613 52.437-29.952 126.507 57.216 0.17 0 0.426 0.128 0.768 0.427 5.205 4.309 29.61 39.21 43.434 51.797 59.094 53.248 147.542 11.99 157.611 6.016 4.693-38.187 19.072-68.267 43.179-90.368a292.139 292.139 0 0 1-64.256-10.027 205.141 205.141 0 0 1-61.227-18.048 169.685 169.685 0 0 1-58.24-29.141c-17.408-9.344-33.792-23.424-49.152-42.155a205.099 205.099 0 0 1-40.192-58.24c-10.667-20.053-19.072-45.824-25.088-77.269-6.016-28.8-9.045-61.91-9.045-99.413 0-68.907 23.082-129.494 69.29-181.718-2.73-5.376-33.109-77.056 7.979-179.712C246.656 0 306.56 25.43 376.832 70.23c51.541-11.989 108.075-19.37 169.685-22.101a892.16 892.16 0 0 1 169.686 22.101C739.584 56.192 822.016 0 900.864 4.011c37.803 89.344 11.05 169.984 7.04 178.688 46.165 46.208 69.248 104.746 69.248 175.701v6.016c0.341 5.035 0.512 10.07 0.512 15.104 0 27.733-3.157 55.893-9.557 84.352a347.733 347.733 0 0 1-25.088 77.312A282.41 282.41 0 0 1 903.85 598.4a368 368 0 0 1-49.195 41.173 498.347 498.347 0 0 1-57.216 28.118 1902.933 1902.933 0 0 1-61.27 18.048 1566.72 1566.72 0 0 0-64.255 10.026c30.122 25.472 45.525 66.944 46.208 124.502-0.299 17.365-0.47 35.882-0.47 55.466s0.171 40.235 0.47 61.995c-0.683 21.419-0.982 37.675-0.982 48.725s0.299 16.896 0.982 17.536A682.112 682.112 0 0 1 558.549 1024h-15.061c-54.57 0-107.776-6.656-159.659-20.096-0.682-0.683-0.981-39.168-0.981-115.413-20.779 4.65-157.525 31.488-218.197-69.846-19.328-29.994-35.456-103.296-101.035-135.978-6.955 18.005-28.97 2.645-14.08-10.027z" p-id="8151" fill="#9ca4b8"></path></svg>