<?xml version="1.0" standalone="no"?><!DOCTYPE svg PUBLIC "-//W3C//DTD SVG 1.1//EN" "http://www.w3.org/Graphics/SVG/1.1/DTD/svg11.dtd"><svg t="1583418851813" class="icon" viewBox="0 0 1024 1024" version="1.1" xmlns="http://www.w3.org/2000/svg" p-id="3209" xmlns:xlink="http://www.w3.org/1999/xlink" width="16" height="16"><defs><style type="text/css"></style></defs><path d="M975.996375 683.202662c-20.799838-124.799025-111.999125-206.398388-111.999125-206.398387 12.7999-113.599113-35.199725-132.798963-35.199725-132.798963C820.797588-6.39195 518.39995 0.008 512 0.008c-6.39995 0-308.797588-6.39995-318.397513 343.997312 0 0-47.999625 20.799838-35.199725 132.798963 0 0-89.5993 81.599363-111.999125 206.398387 0 0-11.199913 211.19835 103.999188 25.5998 0 0 25.5998 70.39945 73.599425 132.798963 0 0-84.799338 28.799775-76.7994 103.999187 0 0-3.199975 83.19935 180.798587 76.7994 0 0 129.598988-9.599925 167.998688-63.9995h33.599738c38.3997 54.399575 167.998688 63.9995 167.998687 63.9995 183.998563 6.39995 180.798588-76.7994 180.798588-76.7994 6.39995-75.199413-76.7994-103.999188-76.7994-103.999187 47.999625-62.399513 73.599425-132.798963 73.599425-132.798963 111.999125 185.59855 100.799213-25.5998 100.799212-25.5998z" p-id="3210" fill="#9ca4b8"></path></svg>