<?xml version="1.0" standalone="no"?><!DOCTYPE svg PUBLIC "-//W3C//DTD SVG 1.1//EN" "http://www.w3.org/Graphics/SVG/1.1/DTD/svg11.dtd"><svg t="1583418804308" class="icon" viewBox="0 0 1170 1024" version="1.1" xmlns="http://www.w3.org/2000/svg" p-id="2311" width="18.28125" height="16" xmlns:xlink="http://www.w3.org/1999/xlink"><defs><style type="text/css"></style></defs><path d="M937.252571 587.556571c-27.977143 0-50.724571-23.332571-50.724571-52.297142 0-28.745143 22.747429-52.077714 50.724571-52.077715 27.940571 0 50.688 23.332571 50.688 52.114286 0 28.928-22.747429 52.260571-50.688 52.260571m-260.864 0c-27.940571 0-50.688-23.332571-50.688-52.297142 0-28.745143 22.747429-52.077714 50.688-52.077715 27.977143 0 50.724571 23.332571 50.724572 52.114286 0 28.928-22.747429 52.260571-50.724572 52.260571m493.714286 74.24c0-168.850286-147.712-307.090286-334.921143-319.012571a475.428571 475.428571 0 0 0-26.331428-0.804571c-199.570286 0-361.289143 143.213714-361.289143 319.780571 0 26.660571 3.766857 52.443429 10.752 77.092571 38.838857 139.410286 181.028571 242.761143 350.537143 242.761143 57.709714 0 112.128-11.922286 160.402285-33.28l81.078858 56.393143s21.613714 15.36 19.529142-14.226286l-22.930285-88.283428c75.593143-58.514286 123.209143-144.530286 123.209143-240.420572M255.634286 302.08c-27.940571 0-50.688-23.296-50.688-52.077714 0-28.928 22.747429-52.260571 50.688-52.260572 28.123429 0 50.724571 23.332571 50.724571 52.297143 0 28.745143-22.601143 52.041143-50.724571 52.041143m319.341714-104.338286c27.977143 0 50.724571 23.332571 50.724571 52.297143 0 28.745143-22.747429 52.041143-50.724571 52.041143-28.086857 0-50.688-23.296-50.688-52.077714 0-28.928 22.601143-52.260571 50.688-52.260572m233.874286 117.577143c7.789714 0 15.433143 0.329143 23.076571 0.658286C802.194286 137.252571 628.297143 0 418.157714 0 187.245714 0 0 165.888 0 370.249143c0 113.956571 58.148571 215.771429 149.504 283.794286l-30.866286 118.528s-10.569143 39.350857 29.403429 21.686857l115.236571-80.091429a461.897143 461.897143 0 0 0 154.88 26.514286c4.754286 0 9.252571-0.365714 13.824-0.365714a307.858286 307.858286 0 0 1-10.24-78.518858c0-191.012571 173.714286-346.441143 387.108572-346.441142" p-id="2312" fill="#9ca4b8"></path></svg>